<?xml version="1.0" encoding="UTF-8" standalone="no"?>
<svg width="40px" height="33px" viewBox="0 0 40 33" version="1.1" xmlns="http://www.w3.org/2000/svg" xmlns:xlink="http://www.w3.org/1999/xlink" xmlns:sketch="http://www.bohemiancoding.com/sketch/ns">
    <!-- Generator: Sketch 3.2.2 (9983) - http://www.bohemiancoding.com/sketch -->
    <title>Twitter_bird_logo_2012</title>
    <desc>Created with Sketch.</desc>
    <defs></defs>
    <g id="Welcome" stroke="none" stroke-width="1" fill="none" fill-rule="evenodd" sketch:type="MSPage">
        <g id="End" sketch:type="MSArtboardGroup" transform="translate(-500.000000, -480.000000)" fill="#2AA9E0">
            <g id="Share-Twitter" sketch:type="MSLayerGroup" transform="translate(471.000000, 467.000000)">
                <g id="Twitter_bird_logo_2012" transform="translate(29.000000, 13.000000)" sketch:type="MSShapeGroup">
                    <g id="layer1" transform="translate(0.157103, 0.162112)">
                        <path d="M39.7285387,3.93336362 C38.2696486,4.5884417 36.7015121,5.03098106 35.0560486,5.23007404 C36.7356162,4.21092638 38.0257734,2.59711404 38.6330821,0.67402617 C37.0609803,1.61790809 35.3199491,2.30309106 33.4666983,2.67237745 C31.9828254,1.07180957 29.8684486,0.0719306383 27.528437,0.0719306383 C23.0355838,0.0719306383 19.3927237,3.75895511 19.3927237,8.30677638 C19.3927237,8.95222128 19.464696,9.58080809 19.6034867,10.1835051 C12.8419977,9.84011085 6.8474289,6.56150468 2.83479075,1.57917404 C2.13449249,2.79540426 1.73318844,4.20992468 1.73318844,5.71917617 C1.73318844,8.57631383 3.16947514,11.0968819 5.35245318,12.5736179 C4.01887399,12.53087 2.76440462,12.1603806 1.66756069,11.5436364 C1.66663584,11.577954 1.66663584,11.612473 1.66663584,11.6471955 C1.66663584,15.6370757 4.47100347,18.9652521 8.19277457,19.7222862 C7.51012254,19.9105406 6.79138497,20.01109 6.0494474,20.01109 C5.52521618,20.01109 5.0156578,19.9593104 4.51878613,19.8633764 C5.55416416,23.1349566 8.55858728,25.5158387 12.1187676,25.5820681 C9.33442775,27.7909523 5.82659191,29.107533 2.01480231,29.107533 C1.35812254,29.107533 0.710566474,29.0683964 0.0741109827,28.9923302 C3.67454104,31.3290602 7.95088092,32.6924026 12.5452509,32.6924026 C27.5094682,32.6924026 35.6927676,20.1441549 35.6927676,9.26149681 C35.6927676,8.90445553 35.684837,8.54942 35.6691746,8.19599234 C37.2585249,7.03515298 38.6377087,5.58490596 39.7284069,3.93336362 L39.7285387,3.93336362 Z" id="path5"></path>
                    </g>
                </g>
            </g>
        </g>
    </g>
</svg>