<?xml version="1.0" encoding="UTF-8" standalone="no"?>
<svg width="51px" height="29px" viewBox="0 0 51 29" version="1.1" xmlns="http://www.w3.org/2000/svg" xmlns:xlink="http://www.w3.org/1999/xlink" xmlns:sketch="http://www.bohemiancoding.com/sketch/ns">
    <!-- Generator: Sketch 3.2.2 (9983) - http://www.bohemiancoding.com/sketch -->
    <title>VK Logo EPS</title>
    <desc>Created with Sketch.</desc>
    <defs></defs>
    <g id="Welcome" stroke="none" stroke-width="1" fill="none" fill-rule="evenodd" sketch:type="MSPage">
        <g id="End" sketch:type="MSArtboardGroup" transform="translate(-482.000000, -482.000000)" fill="#4B6C91">
            <g id="VK-Logo-EPS" sketch:type="MSLayerGroup" transform="translate(482.000000, 482.000000)">
                <path d="M25.1233893,28.7122193 L28.1434393,28.7122193 C28.1434393,28.7122193 29.055376,28.612274 29.5217264,28.1129303 C29.9503167,27.6539932 29.9366276,26.7929026 29.9366276,26.7929026 C29.9366276,26.7929026 29.8775648,22.760501 31.7579631,22.1667219 C33.6124445,21.5814375 35.9931083,26.0638225 38.5164305,27.7875342 C40.4245145,29.0914144 41.8745538,28.8061189 41.8745538,28.8061189 L48.6221007,28.7122193 C48.6221007,28.7122193 52.1516448,28.4954926 50.4779664,25.7339878 C50.340999,25.5084604 49.5029679,23.6912318 45.4609305,19.9577476 C41.2296305,16.0499332 41.7968031,16.6822057 46.8932817,9.92273667 C49.997081,5.8063075 51.2377086,3.29328833 50.8500317,2.21700167 C50.4806581,1.19160597 48.1975864,1.46243778 48.1975864,1.46243778 L40.6004726,1.50919625 C40.6004726,1.50919625 40.0368376,1.43289806 39.6193986,1.68146028 C39.2111112,1.9245125 38.9490967,2.49250167 38.9490967,2.49250167 C38.9490967,2.49250167 37.7461524,5.67774083 36.1430726,8.38713028 C32.760186,14.1031431 31.4072774,14.4057339 30.8543321,14.0501858 C29.5677924,13.2229206 29.8893312,10.7272732 29.8893312,8.95381847 C29.8893312,3.41404917 30.7336686,1.10428778 28.2449536,0.50637625 C27.419304,0.308092778 26.8109874,0.176924167 24.6989519,0.155496389 C21.9879821,0.128099444 19.6941438,0.163837917 18.3949148,0.797105278 C17.530659,1.21831417 16.8638179,2.15662125 17.2701057,2.21064986 C17.7723707,2.27722903 18.9093307,2.51607222 19.5120333,3.33224097 C20.290771,4.38656417 20.2636236,6.75326222 20.2636236,6.75326222 C20.2636236,6.75326222 20.7110555,13.2744237 19.2188724,14.0842407 C18.1949624,14.6398324 16.7901431,13.5056142 13.7740152,8.31963278 C12.2289986,5.66320056 11.0620457,2.72652361 11.0620457,2.72652361 C11.0620457,2.72652361 10.8374069,2.17789597 10.435964,1.88418236 C9.94923381,1.52832819 9.26901119,1.41552625 9.26901119,1.41552625 L2.04949976,1.46243778 C2.04949976,1.46243778 0.965911667,1.49258972 0.567775714,1.96155194 C0.213552381,2.37901097 0.539474762,3.2414025 0.539474762,3.2414025 C0.539474762,3.2414025 6.19120571,16.3998182 12.59122,23.0308736 C18.4602838,29.1113117 25.1233893,28.7122193 25.1233893,28.7122193" id="Fill-4" sketch:type="MSShapeGroup"></path>
            </g>
        </g>
    </g>
</svg>